<?xml version="1.0" standalone="no"?>
<!DOCTYPE svg PUBLIC "-//W3C//DTD SVG 20010904//EN"
 "http://www.w3.org/TR/2001/REC-SVG-20010904/DTD/svg10.dtd">
<svg version="1.0" xmlns="http://www.w3.org/2000/svg"
 width="2027.000000pt" height="2027.000000pt" viewBox="0 0 2027.000000 2027.000000"
 preserveAspectRatio="xMidYMid meet">
<metadata>
Created by potrace 1.14, written by Peter Selinger 2001-2017
</metadata>
<g transform="translate(0.000000,2027.000000) scale(0.100000,-0.100000)"
fill="#000000" stroke="none">
<path d="M8722 18697 c-21 -41 -118 -207 -227 -392 -29 -49 -65 -112 -81 -140
-15 -27 -47 -83 -71 -123 -24 -41 -43 -78 -43 -83 0 -5 -4 -9 -10 -9 -5 0 -10
-5 -10 -10 0 -6 -55 -106 -123 -223 -68 -117 -154 -266 -193 -332 -38 -66 -73
-127 -79 -137 -14 -23 -37 -63 -75 -133 -18 -33 -38 -67 -44 -75 -6 -8 -19
-28 -28 -45 -9 -16 -107 -187 -218 -380 -112 -192 -211 -365 -222 -383 -19
-35 -126 -220 -218 -377 -29 -49 -62 -108 -75 -130 -136 -242 -240 -420 -247
-423 -5 -2 -8 -7 -8 -12 0 -5 -57 -107 -126 -227 -69 -120 -136 -236 -149
-258 -12 -22 -79 -138 -149 -258 -69 -119 -126 -222 -126 -227 0 -6 -4 -10
-10 -10 -5 0 -10 -4 -10 -9 0 -5 -54 -103 -121 -217 -67 -115 -156 -270 -199
-344 -43 -74 -134 -232 -202 -350 -69 -118 -136 -235 -150 -260 -31 -55 -278
-482 -307 -530 -11 -19 -33 -57 -48 -85 -15 -27 -32 -58 -38 -67 -9 -16 -97
-166 -135 -233 -44 -76 -250 -433 -315 -545 -40 -69 -149 -258 -242 -420 -94
-162 -179 -309 -189 -327 -11 -18 -53 -92 -95 -165 -42 -73 -109 -189 -149
-258 -41 -69 -97 -165 -125 -215 -151 -264 -334 -581 -380 -660 -68 -115 -224
-386 -257 -445 -46 -81 -348 -605 -358 -620 -10 -17 -65 -110 -90 -155 -18
-32 -154 -266 -188 -325 -12 -19 -36 -62 -55 -95 -57 -101 -176 -309 -187
-325 -5 -8 -22 -37 -36 -65 -15 -27 -29 -52 -33 -55 -5 -4 -17 -26 -65 -115
-6 -11 -16 -27 -22 -35 -6 -8 -23 -35 -36 -60 -46 -83 -140 -246 -175 -305 -7
-11 -16 -27 -20 -35 -4 -8 -49 -86 -100 -173 -51 -88 -93 -161 -93 -163 0 -3
-11 -21 -24 -42 -22 -36 -264 -452 -314 -542 -13 -25 -28 -49 -32 -55 -4 -5
-69 -118 -145 -250 -76 -132 -163 -283 -193 -335 -30 -52 -63 -108 -72 -125
-9 -16 -118 -205 -242 -420 -124 -214 -234 -406 -245 -425 -22 -38 -99 -172
-190 -327 -225 -388 -303 -526 -303 -534 0 -2 397 -4 882 -3 486 0 886 -1 891
-3 4 -3 -5 -25 -20 -51 -48 -85 -129 -225 -197 -340 -36 -62 -66 -115 -66
-117 0 -2 -16 -30 -35 -62 -19 -32 -35 -60 -35 -63 0 -3 182 -5 405 -5 223 0
405 -1 405 -3 0 -4 -91 -164 -168 -297 -19 -33 -42 -73 -52 -90 -9 -16 -42
-73 -72 -125 -30 -52 -98 -169 -150 -260 -53 -91 -105 -181 -117 -200 -11 -19
-24 -42 -28 -50 -4 -8 -31 -55 -60 -104 -29 -49 -53 -90 -53 -93 0 -2 -22 -41
-49 -86 -28 -45 -52 -89 -56 -98 -6 -15 696 -16 8738 -16 l8744 0 -47 81
c-237 411 -286 496 -303 526 -11 19 -56 98 -101 175 -45 77 -85 147 -89 155
-4 8 -17 31 -28 50 -50 82 -249 428 -249 431 0 2 182 4 405 4 223 0 405 3 405
6 0 3 -64 116 -141 250 -78 134 -155 269 -172 299 -16 30 -34 60 -39 67 -5 6
-5 13 -1 15 4 2 389 4 856 4 466 -1 847 2 847 6 0 4 -20 42 -45 84 -25 41 -45
78 -45 81 0 3 -8 17 -19 31 -10 15 -29 47 -43 72 -14 25 -42 74 -63 110 -21
36 -46 81 -57 100 -69 121 -295 513 -318 550 -15 25 -39 65 -53 90 -13 25
-125 218 -247 430 -122 212 -234 405 -248 430 -13 25 -28 50 -32 55 -4 6 -19
30 -32 55 -14 25 -133 232 -265 460 -132 228 -247 429 -257 445 -9 17 -20 37
-26 45 -5 8 -36 62 -70 120 -33 58 -65 112 -70 120 -6 8 -13 22 -17 30 -4 8
-61 107 -126 220 -66 113 -131 225 -145 250 -14 25 -72 126 -130 225 -58 99
-118 205 -135 235 -17 30 -50 89 -74 130 -24 41 -49 84 -55 95 -54 95 -280
483 -288 495 -6 8 -13 22 -17 30 -4 8 -68 121 -143 250 -75 129 -217 375 -315
545 -98 171 -197 342 -220 380 -23 39 -54 91 -68 118 -55 97 -301 524 -338
585 -22 35 -39 65 -39 67 0 3 -22 42 -49 87 -27 46 -58 99 -68 118 -11 19
-102 177 -203 350 -100 173 -191 331 -202 350 -31 54 -131 227 -152 263 -10
18 -69 120 -131 227 -62 107 -138 240 -170 295 -32 55 -66 114 -75 130 -50 88
-175 304 -191 330 -10 17 -24 41 -32 55 -11 20 -307 534 -377 655 -92 159
-427 738 -442 765 -40 70 -130 225 -139 240 -22 36 -126 216 -132 230 -4 8
-18 33 -32 55 -14 22 -28 47 -32 55 -4 8 -23 42 -43 75 -20 33 -50 85 -67 115
-17 30 -51 90 -76 132 -26 43 -63 108 -83 145 -20 38 -43 75 -50 84 -8 8 -14
18 -14 22 0 4 -22 44 -49 89 -26 46 -74 128 -106 183 -143 248 -320 554 -343
595 -14 25 -35 61 -47 80 -12 19 -34 58 -50 85 -15 28 -60 107 -101 177 -41
69 -74 131 -74 137 0 6 -4 11 -10 11 -5 0 -10 4 -10 9 0 5 -25 50 -55 100 -30
51 -55 93 -55 95 0 3 -183 322 -280 486 -53 90 -367 635 -398 690 -14 25 -33
57 -43 72 -11 14 -19 29 -19 33 0 4 -14 31 -32 59 -17 28 -39 65 -48 81 -44
78 -175 303 -191 330 -10 17 -28 49 -40 73 -27 50 -30 48 -79 -43 -18 -33 -50
-89 -72 -124 -21 -34 -38 -64 -38 -66 0 -2 -52 -92 -116 -202 -64 -109 -120
-207 -125 -218 -5 -11 -44 -79 -87 -151 -42 -72 -142 -244 -222 -383 -80 -138
-147 -251 -150 -251 -3 0 -22 30 -42 68 -56 99 -80 142 -240 417 -79 138 -158
274 -175 303 -34 61 -28 65 -99 -58 -27 -47 -57 -98 -67 -115 -10 -16 -23 -42
-30 -57 -6 -16 -15 -28 -19 -28 -4 0 -8 -5 -8 -10 0 -6 -11 -27 -23 -48 -13
-20 -35 -57 -49 -82 -14 -25 -34 -61 -45 -80 -12 -19 -45 -78 -76 -130 -30
-52 -74 -130 -99 -172 l-44 -76 -54 95 c-30 53 -64 112 -76 132 -19 32 -158
273 -517 896 -61 105 -139 241 -175 303 -35 62 -67 114 -71 117 -4 2 -17 -15
-29 -38z"/>
</g>
</svg>
